<svg viewBox="0 0 400 400" xmlns="http://www.w3.org/2000/svg">
  <!-- Background -->
  <rect x="0" y="0" width="400" height="400" fill="#1a1a2e"/>
  
  <!-- Circuit board pattern -->
  <path d="M50 50 L350 50 L350 350 L50 350 Z" 
        stroke="#16213e" 
        stroke-width="2" 
        fill="none" 
        stroke-dasharray="15,15"/>
  
  <!-- Brain shape created with gradient -->
  <defs>
    <linearGradient id="brainGradient" x1="0%" y1="0%" x2="100%" y2="100%">
      <stop offset="0%" style="stop-color:#4d2c91;stop-opacity:1" />
      <stop offset="100%" style="stop-color:#7c3aed;stop-opacity:1" />
    </linearGradient>
    
    <filter id="glow" x="-50%" y="-50%" width="200%" height="200%">
      <feGaussianBlur in="SourceGraphic" stdDeviation="4" result="blur"/>
      <feMerge>
        <feMergeNode in="blur"/>
        <feMergeNode in="SourceGraphic"/>
      </feMerge>
    </filter>
  </defs>
  
  <!-- Stylized brain with connection points -->
  <path d="M200 120 
           C260 120, 300 160, 300 200
           C300 240, 260 280, 200 280
           C140 280, 100 240, 100 200
           C100 160, 140 120, 200 120
           M160 160
           C140 180, 140 220, 160 240
           M240 160
           C260 180, 260 220, 240 240
           M180 200
           C190 210, 210 210, 220 200"
        fill="none"
        stroke="url(#brainGradient)"
        stroke-width="8"
        filter="url(#glow)"/>
  
  <!-- Neural network overlay -->
  <g opacity="0.8">
    <circle cx="160" cy="160" r="6" fill="#00ffff"/>
    <circle cx="240" cy="160" r="6" fill="#00ffff"/>
    <circle cx="160" cy="240" r="6" fill="#00ffff"/>
    <circle cx="240" cy="240" r="6" fill="#00ffff"/>
    <circle cx="200" cy="200" r="8" fill="#ff3366"/>
    
    <!-- Animated pulse around detection point -->
    <circle cx="200" cy="200" r="15" fill="none" stroke="#ff3366" stroke-width="2">
      <animate attributeName="r" 
               values="15;25;15" 
               dur="2s" 
               repeatCount="indefinite"/>
      <animate attributeName="opacity" 
               values="1;0;1" 
               dur="2s" 
               repeatCount="indefinite"/>
    </circle>
    
    <!-- Connection lines -->
    <line x1="160" y1="160" x2="200" y2="200" stroke="#00ffff" stroke-width="2"/>
    <line x1="240" y1="160" x2="200" y2="200" stroke="#00ffff" stroke-width="2"/>
    <line x1="160" y1="240" x2="200" y2="200" stroke="#00ffff" stroke-width="2"/>
    <line x1="240" y1="240" x2="200" y2="200" stroke="#00ffff" stroke-width="2"/>
  </g>
  
  <!-- Data visualization elements -->
  <g transform="translate(50, 300)" opacity="0.5">
    <path d="M0 0 Q 25 -20, 50 -10 T 100 -30 T 150 -15 T 200 -40" 
          fill="none" 
          stroke="#00ffff" 
          stroke-width="2"/>
  </g>
  
  <!-- Text elements -->
  <text x="200" y="350" 
        text-anchor="middle" 
        font-family="Arial, sans-serif" 
        font-weight="bold" 
        font-size="24" 
        fill="#ffffff">
    Brain Tumor Detection
  </text>
  <text x="200" y="375" 
        text-anchor="middle" 
        font-family="Arial, sans-serif" 
        font-size="16" 
        fill="#8888aa">
    Deep Learning Analytics
  </text>
</svg>
